<?xml version="1.0" encoding="UTF-8" standalone="no"?>
<svg
   width="100"
   height="100"
   viewBox="0 0 100 100"
   fill="none"
   version="1.1"
   id="svg2"
   sodipodi:docname="connection-clover_alt.svg"
   inkscape:version="1.4.3 (0d15f75042, 2025-12-25)"
   xmlns:inkscape="http://www.inkscape.org/namespaces/inkscape"
   xmlns:sodipodi="http://sodipodi.sourceforge.net/DTD/sodipodi-0.dtd"
   xmlns="http://www.w3.org/2000/svg"
   xmlns:svg="http://www.w3.org/2000/svg">
  <sodipodi:namedview
     id="namedview2"
     pagecolor="#505050"
     bordercolor="#ffffff"
     borderopacity="1"
     inkscape:showpageshadow="0"
     inkscape:pageopacity="0"
     inkscape:pagecheckerboard="1"
     inkscape:deskcolor="#505050"
     inkscape:zoom="8.45"
     inkscape:cx="49.940828"
     inkscape:cy="50"
     inkscape:window-width="1920"
     inkscape:window-height="1048"
     inkscape:window-x="0"
     inkscape:window-y="0"
     inkscape:window-maximized="1"
     inkscape:current-layer="g2" />
  <g
     clip-path="url(#clip0_25_12)"
     id="g2">
    <path
       d="M50 97.3873C76.1713 97.3873 97.3873 76.1713 97.3873 50C97.3873 23.8287 76.1713 2.61267 50 2.61267C23.8287 2.61267 2.61267 23.8287 2.61267 50C2.61267 76.1713 23.8287 97.3873 50 97.3873Z"
       fill="#177C75"
       stroke="black"
       stroke-width="5.22533"
       id="path1"
       style="fill:#abc837" />
    <path
       d="m 40.3948,69.5398 c -1.4489,1e-4 -2.8835,-0.2852 -4.2221,-0.8396 -1.3386,-0.5544 -2.5548,-1.367 -3.5793,-2.3915 -1.0245,-1.0245 -1.8372,-2.2408 -2.3916,-3.5793 -0.5544,-1.3386 -0.8397,-2.7733 -0.8396,-4.2221 0.0071,-2.8219 1.0954,-5.5338 3.0408,-7.5778 1.9455,-2.0441 4.6004,-3.2649 7.4184,-3.4114 -0.7147,-1.4824 -1.0887,-3.106 -1.0945,-4.7518 0.0021,-2.9245 1.1654,-5.7286 3.2342,-7.7958 2.0688,-2.0671 4.8738,-3.2282 7.7983,-3.228 2.9246,-2e-4 5.7296,1.1609 7.7984,3.228 2.0688,2.0672 3.2321,4.8713 3.2342,7.7958 -3e-4,1.6379 -0.3653,3.2552 -1.0685,4.7345 2.8716,0.0744 5.6009,1.266 7.6076,3.3214 2.0068,2.0554 3.1326,4.8125 3.1382,7.6851 3e-4,2.9245 -1.1608,5.7295 -3.228,7.7983 -2.0672,2.0688 -4.8712,3.2321 -7.7958,3.2342 -1.9284,-0.0031 -3.8223,-0.5117 -5.4929,-1.475 -1.6706,-0.9633 -3.0594,-2.3477 -4.0281,-4.0152 -0.9695,1.6687 -2.3597,3.0539 -4.0319,4.0173 -1.6722,0.9634 -3.5679,1.4713 -5.4978,1.4729 z"
       fill="#ebdfa1"
       stroke="#000000"
       stroke-width="2.62"
       stroke-linejoin="round"
       id="path2" />
  </g>
  <defs
     id="defs2">
    <clipPath
       id="clip0_25_12">
      <rect
         width="100"
         height="100"
         fill="white"
         id="rect2" />
    </clipPath>
  </defs>
</svg>
