<?xml version="1.0" encoding="UTF-8" standalone="no"?>
<svg
   width="100"
   height="100"
   viewBox="0 0 100 100"
   fill="none"
   version="1.1"
   id="svg3"
   sodipodi:docname="connection-equals_alt.svg"
   inkscape:version="1.4.3 (0d15f75042, 2025-12-25)"
   xmlns:inkscape="http://www.inkscape.org/namespaces/inkscape"
   xmlns:sodipodi="http://sodipodi.sourceforge.net/DTD/sodipodi-0.dtd"
   xmlns="http://www.w3.org/2000/svg"
   xmlns:svg="http://www.w3.org/2000/svg">
  <sodipodi:namedview
     id="namedview3"
     pagecolor="#505050"
     bordercolor="#ffffff"
     borderopacity="1"
     inkscape:showpageshadow="0"
     inkscape:pageopacity="0"
     inkscape:pagecheckerboard="1"
     inkscape:deskcolor="#505050"
     inkscape:zoom="8.45"
     inkscape:cx="49.940828"
     inkscape:cy="50"
     inkscape:window-width="1920"
     inkscape:window-height="1048"
     inkscape:window-x="0"
     inkscape:window-y="0"
     inkscape:window-maximized="1"
     inkscape:current-layer="svg3" />
  <g
     clip-path="url(#clip0_25_13)"
     id="g3">
    <path
       d="M50 97.3873C76.1713 97.3873 97.3873 76.1713 97.3873 50C97.3873 23.8287 76.1713 2.61267 50 2.61267C23.8287 2.61267 2.61267 23.8287 2.61267 50C2.61267 76.1713 23.8287 97.3873 50 97.3873Z"
       fill="#3A4336"
       stroke="black"
       stroke-width="5.22533"
       id="path1"
       style="fill:#462332;fill-opacity:1" />
    <path
       d="m 68.217142,59.172088 7.5267,-7.5267 c 0.6058,-0.6058 0.6058,-1.588 0,-2.1939 l -25.1949,-25.1949 c -0.6058,-0.6058 -1.5881,-0.6058 -2.1939,0 l -7.5267,7.5267 c -0.6058,0.6058 -0.6058,1.5881 0,2.1939 l 25.1949,25.1949 c 0.6058,0.6058 1.5881,0.6058 2.1939,0 z"
       fill="#ebdfa1"
       stroke="#000000"
       stroke-width="2.62"
       stroke-linejoin="round"
       id="path2" />
    <path
       d="m 51.645542,75.743188 7.5266,-7.5267 c 0.6059,-0.6058 0.6059,-1.5881 0,-2.1939 l -25.1949,-25.1949 c -0.6058,-0.6058 -1.588,-0.6058 -2.1939,0 l -7.5266,7.5267 c -0.6059,0.6058 -0.6059,1.588 0,2.1939 l 25.1949,25.1949 c 0.6058,0.6058 1.588,0.6058 2.1939,0 z"
       fill="#ebdfa1"
       stroke="#000000"
       stroke-width="2.62"
       stroke-linejoin="round"
       id="path3" />
  </g>
  <defs
     id="defs3">
    <clipPath
       id="clip0_25_13">
      <rect
         width="100"
         height="100"
         fill="white"
         id="rect3" />
    </clipPath>
  </defs>
</svg>
