<?xml version="1.0" encoding="UTF-8" standalone="no"?>
<svg
   width="100"
   height="100"
   viewBox="0 0 100 100"
   fill="none"
   version="1.1"
   id="svg2"
   sodipodi:docname="connection-moon_alt.svg"
   inkscape:version="1.4.3 (0d15f75042, 2025-12-25)"
   xmlns:inkscape="http://www.inkscape.org/namespaces/inkscape"
   xmlns:sodipodi="http://sodipodi.sourceforge.net/DTD/sodipodi-0.dtd"
   xmlns="http://www.w3.org/2000/svg"
   xmlns:svg="http://www.w3.org/2000/svg">
  <sodipodi:namedview
     id="namedview2"
     pagecolor="#505050"
     bordercolor="#ffffff"
     borderopacity="1"
     inkscape:showpageshadow="0"
     inkscape:pageopacity="0"
     inkscape:pagecheckerboard="1"
     inkscape:deskcolor="#505050"
     inkscape:zoom="8.45"
     inkscape:cx="49.940828"
     inkscape:cy="50"
     inkscape:window-width="1920"
     inkscape:window-height="1048"
     inkscape:window-x="0"
     inkscape:window-y="0"
     inkscape:window-maximized="1"
     inkscape:current-layer="svg2" />
  <g
     clip-path="url(#clip0_25_15)"
     id="g2">
    <path
       d="M50.0002 97.3873C76.171 97.3873 97.3867 76.1713 97.3867 50C97.3867 23.8287 76.171 2.61267 50.0002 2.61267C23.8293 2.61267 2.61365 23.8287 2.61365 50C2.61365 76.1713 23.8293 97.3873 50.0002 97.3873Z"
       fill="#7C273B"
       stroke="black"
       stroke-width="5.22533"
       id="path1"
       style="fill:#2b1c7c;fill-opacity:1" />
    <path
       d="m 45.233285,33.6188 c 2.0651,-9e-4 4.1101,0.4223 6.0182,1.2453 1.908,0.823 3.6417,2.0298 5.102,3.5514 1.4602,1.5215 2.6184,3.328 3.4082,5.3162 0.7899,1.9882 1.196,4.1191 1.1952,6.2709 -3e-4,2.1511 -0.4072,4.2811 -1.1975,6.2682 -0.7904,1.9872 -1.9487,3.7927 -3.4089,5.3133 -1.4601,1.5207 -3.1934,2.7267 -5.1009,3.5491 -1.9076,0.8225 -3.9519,1.2454 -6.0163,1.2445 -3.1465,-0.0087 -6.2182,-1.0013 -8.8173,-2.8494 2.4215,-1.3521 4.4378,-3.3164 5.8434,-5.6925 1.4055,-2.3761 2.1499,-5.079 2.1574,-7.8332 -0.0085,-2.7582 -0.7562,-5.4647 -2.1665,-7.8427 -1.4103,-2.378 -3.4327,-4.3422 -5.8604,-5.6917 2.6065,-1.8533 5.688,-2.8461 8.8434,-2.8494 z"
       fill="#ebdfa1"
       stroke="#000000"
       stroke-width="2.62"
       stroke-linecap="round"
       stroke-linejoin="round"
       id="path2" />
  </g>
  <defs
     id="defs2">
    <clipPath
       id="clip0_25_15">
      <rect
         width="100"
         height="100"
         fill="white"
         id="rect2" />
    </clipPath>
  </defs>
</svg>
