<?xml version="1.0" encoding="UTF-8" standalone="no"?>
<svg
   width="100"
   height="100"
   viewBox="0 0 100 100"
   fill="none"
   version="1.1"
   id="svg2"
   sodipodi:docname="connection-sun.svg"
   inkscape:version="1.4.3 (0d15f75042, 2025-12-25)"
   xmlns:inkscape="http://www.inkscape.org/namespaces/inkscape"
   xmlns:sodipodi="http://sodipodi.sourceforge.net/DTD/sodipodi-0.dtd"
   xmlns="http://www.w3.org/2000/svg"
   xmlns:svg="http://www.w3.org/2000/svg">
  <sodipodi:namedview
     id="namedview2"
     pagecolor="#505050"
     bordercolor="#ffffff"
     borderopacity="1"
     inkscape:showpageshadow="0"
     inkscape:pageopacity="0"
     inkscape:pagecheckerboard="1"
     inkscape:deskcolor="#505050"
     inkscape:zoom="8.45"
     inkscape:cx="49.940828"
     inkscape:cy="50"
     inkscape:window-width="1920"
     inkscape:window-height="1048"
     inkscape:window-x="0"
     inkscape:window-y="0"
     inkscape:window-maximized="1"
     inkscape:current-layer="svg2" />
  <g
     clip-path="url(#clip0_25_15)"
     id="g2">
    <path
       d="M50.0002 97.3873C76.171 97.3873 97.3867 76.1713 97.3867 50C97.3867 23.8287 76.171 2.61267 50.0002 2.61267C23.8293 2.61267 2.61365 23.8287 2.61365 50C2.61365 76.1713 23.8293 97.3873 50.0002 97.3873Z"
       fill="#7C273B"
       stroke="black"
       stroke-width="5.22533"
       id="path1"
       style="fill:#e0a113;fill-opacity:1" />
    <path
       d="m 33.832453,46.929531 c -9e-4,-2.0651 0.4223,-4.1101 1.2453,-6.0182 0.823,-1.908 2.0298,-3.6417 3.5514,-5.102 1.5215,-1.4602 3.328,-2.6184 5.3162,-3.4082 1.9882,-0.7899 4.1191,-1.196 6.2709,-1.1952 2.1511,3e-4 4.2811,0.4072 6.2682,1.1975 1.9872,0.7904 3.7927,1.9487 5.3133,3.4089 1.5207,1.4601 2.7267,3.1934 3.5491,5.1009 0.8225,1.9076 1.2454,3.9519 1.2445,6.0163 -0.0087,3.1465 -1.0013,6.2182 -2.8494,8.8173 -1.3521,-2.4215 -3.3164,-4.4378 -5.6925,-5.8434 -2.3761,-1.4055 -5.079,-2.1499 -7.8332,-2.1574 -2.7582,0.0085 -5.4647,0.7562 -7.8427,2.1665 -2.378,1.4103 -4.3422,3.4327 -5.6917,5.8604 -1.8533,-2.6065 -2.8461,-5.688 -2.8494,-8.8434 z"
       fill="#ebdfa1"
       stroke="#000000"
       stroke-width="2.62"
       stroke-linecap="round"
       stroke-linejoin="round"
       id="path2" />
  </g>
  <defs
     id="defs2">
    <clipPath
       id="clip0_25_15">
      <rect
         width="100"
         height="100"
         fill="white"
         id="rect2" />
    </clipPath>
  </defs>
</svg>
