<?xml version="1.0" encoding="UTF-8" standalone="no"?>
<svg
   width="100"
   height="100"
   viewBox="0 0 100 100"
   fill="none"
   version="1.1"
   id="svg2"
   sodipodi:docname="connection-square_alt.svg"
   inkscape:version="1.4.3 (0d15f75042, 2025-12-25)"
   xmlns:inkscape="http://www.inkscape.org/namespaces/inkscape"
   xmlns:sodipodi="http://sodipodi.sourceforge.net/DTD/sodipodi-0.dtd"
   xmlns="http://www.w3.org/2000/svg"
   xmlns:svg="http://www.w3.org/2000/svg">
  <sodipodi:namedview
     id="namedview2"
     pagecolor="#505050"
     bordercolor="#ffffff"
     borderopacity="1"
     inkscape:showpageshadow="0"
     inkscape:pageopacity="0"
     inkscape:pagecheckerboard="1"
     inkscape:deskcolor="#505050"
     inkscape:zoom="8.45"
     inkscape:cx="49.940828"
     inkscape:cy="50"
     inkscape:window-width="1920"
     inkscape:window-height="1048"
     inkscape:window-x="0"
     inkscape:window-y="0"
     inkscape:window-maximized="1"
     inkscape:current-layer="svg2" />
  <g
     clip-path="url(#clip0_25_10)"
     id="g2">
    <path
       d="M49.9999 97.3872C76.1712 97.3872 97.3872 76.1712 97.3872 49.9999C97.3872 23.8286 76.1712 2.61255 49.9999 2.61255C23.8286 2.61255 2.61255 23.8286 2.61255 49.9999C2.61255 76.1712 23.8286 97.3872 49.9999 97.3872Z"
       fill="#991423"
       stroke="black"
       stroke-width="4.79848"
       id="path1"
       style="fill:#4a285f;fill-opacity:1" />
    <path
       d="M66.2906 32.1476H33.7091C32.8467 32.1476 32.1476 32.8467 32.1476 33.7091V66.2906C32.1476 67.153 32.8467 67.8521 33.7091 67.8521H66.2906C67.153 67.8521 67.8521 67.153 67.8521 66.2906V33.7091C67.8521 32.8467 67.153 32.1476 66.2906 32.1476Z"
       fill="#EBDFA1"
       stroke="black"
       stroke-width="2.62"
       stroke-linejoin="round"
       id="path2" />
  </g>
  <defs
     id="defs2">
    <clipPath
       id="clip0_25_10">
      <rect
         width="100"
         height="100"
         fill="white"
         id="rect2" />
    </clipPath>
  </defs>
</svg>
