<?xml version="1.0" encoding="UTF-8" standalone="no"?>
<svg
   width="100"
   height="100"
   viewBox="0 0 100 100"
   fill="none"
   version="1.1"
   id="svg2"
   sodipodi:docname="connection-droplet_alt.svg"
   inkscape:version="1.4.3 (0d15f75042, 2025-12-25)"
   xmlns:inkscape="http://www.inkscape.org/namespaces/inkscape"
   xmlns:sodipodi="http://sodipodi.sourceforge.net/DTD/sodipodi-0.dtd"
   xmlns="http://www.w3.org/2000/svg"
   xmlns:svg="http://www.w3.org/2000/svg">
  <sodipodi:namedview
     id="namedview2"
     pagecolor="#505050"
     bordercolor="#ffffff"
     borderopacity="1"
     inkscape:showpageshadow="0"
     inkscape:pageopacity="0"
     inkscape:pagecheckerboard="1"
     inkscape:deskcolor="#505050"
     inkscape:zoom="8.45"
     inkscape:cx="49.940828"
     inkscape:cy="50"
     inkscape:window-width="1920"
     inkscape:window-height="1048"
     inkscape:window-x="0"
     inkscape:window-y="0"
     inkscape:window-maximized="1"
     inkscape:current-layer="svg2" />
  <g
     clip-path="url(#clip0_25_19)"
     id="g2">
    <path
       d="M50 97.3873C76.1713 97.3873 97.3873 76.1713 97.3873 50C97.3873 23.8287 76.1713 2.61267 50 2.61267C23.8287 2.61267 2.61267 23.8287 2.61267 50C2.61267 76.1713 23.8287 97.3873 50 97.3873Z"
       fill="#9A4F38"
       stroke="black"
       stroke-width="5.22533"
       id="path1"
       style="fill:#333333" />
    <path
       d="m 58.715474,31.589122 c -12.4558,-4.1378 -23.3948,-1.7672 -28.7882,3.0061 -1.2877,1.1319 -2.2039,2.2622 -3.0609,3.7776 -0.3579,0.6325 -0.9278,1.9155 -1.1421,2.5798 -1.6829,7.0175 -0.4124,11.772 4.2906,16.2562 0.2893,0.2067 0.6595,0.4781 0.8239,0.6011 2.907,2.41 5.1008,2.6953 8.7347,3.0104 2.8334,0.0116 5.2602,-0.722 8.1628,-3.8795 6.6118,-7.8288 -5.3005,-12.8589 -3.3067,-19.0372 0.9727,-4.2432 8.7715,-5.8767 14.2859,-6.3145 z"
       fill="#ebdfa1"
       stroke="#000000"
       stroke-width="2.62364"
       stroke-linecap="round"
       stroke-linejoin="round"
       id="path2" />
    <path
       d="m 44.648574,67.063839 c 12.455798,4.1378 23.394798,1.7672 28.788198,-3.0061 1.2877,-1.1319 2.2039,-2.2622 3.0609,-3.7776 0.3579,-0.6325 0.9278,-1.9155 1.1421,-2.5798 1.6829,-7.0175 0.4124,-11.772 -4.2906,-16.2562 -0.2893,-0.2067 -0.6595,-0.4781 -0.8239,-0.6011 -2.907,-2.41 -5.1008,-2.6953 -8.7347,-3.0104 -2.8334,-0.0116 -5.2602,0.722 -8.1628,3.8795 -6.611798,7.8288 5.3005,12.8589 3.3067,19.0372 -0.9727,4.2432 -8.771498,5.8767 -14.285898,6.3145 z"
       fill="#ebdfa1"
       stroke="#000000"
       stroke-width="2.62364"
       stroke-linecap="round"
       stroke-linejoin="round"
       id="path2-6" />
  </g>
  <defs
     id="defs2">
    <clipPath
       id="clip0_25_19">
      <rect
         width="100"
         height="100"
         fill="white"
         id="rect2" />
    </clipPath>
  </defs>
</svg>
