<?xml version="1.0" encoding="UTF-8"?>
<svg data-name="Skill Symbols" version="1.1" viewBox="0 0 24 24" xmlns="http://www.w3.org/2000/svg">
 <g data-name="Foot SVG">
  <g data-name="Foot SVG Compound">
   <path d="M20.6,9.89c.08-.26.13-.5.13-.73,0-.17.06-.41-.05-.99.48-.64.33-1.66.31-2.15-.04-.71-.39-1.53-.88-1.74.17-.63.15-1.36-.24-2.08-.28-.51-.9-.94-1.96-1.55-.08-.08-.4-.21-.5-.26-.12-.06-.64-.13-.68-.03-.05.12.42.71.53.94.53,1.11.61,2.67,0,3.69-.14.23-.44.5-.77.78l-1.24-1.24c-.01-.24-.04-.48-.08-.68-.13-.61-.65-1.16-1.01-1.3-.06-.37-.13-.78-.64-1.46C12.87.22,11.71.05,11.24.03c-.14,0-.8-.04-.82.11-.01.1.55.62.63.72.18.24.35.55.5.88L.65,12.63l4.39,4.39c-1.09.18-2.23.83-2.65,1.23-.69.65-.47,1.93,0,2.48.33.38,2.19.56,4,.56,1.03,0,2.04-.06,2.74-.17l2.86,2.86,11.35-11.35-2.74-2.74ZM11.12,6.57c.7-1.06,1.33-2.64,1.34-3.58,0-.55-.31-1.79-1.01-2.46.64.06,1.3.65,1.52.95.58.77.65,1.35.65,1.4,0,.08.02.28-.02.58.11.13.43-.21.44-.36.2.17.4.29.6.99.13.45-.01,1.54-.08,1.76-.03.1-.03.25-.17.45.21.03.39-.07.47-.26.11.36.19.62.12,1.09-.15.17-.34.31-.45.43-.8-.07-1.19-.02-1.8.39-.53.36-1.74,1.76-2.14,2.22-.1-.08-.29-.16-.4-.24-.04-.92.25-2.35.93-3.37ZM14.17,8.12c-.09.13-.16.26-.27.46-.81-.03-1.56,1.19-2.37,2.17l-.03.03c-.1-.01-.23-.12-.41-.24.44-.66,1.4-1.71,1.79-2.07.37-.33.85-.49,1.29-.36ZM15.21,17.22l-.77-.83c-.07-.08-.07-.11-.18-.11-.1.01-.25.18-.32.26-1.69,1.81-2.01,2.21-2.34,2.57-.29.31-.57.45-.83.62-.09.06-.18.12-.3.19-.27.16-.63.33-1.41.46-2.26.37-5.74.07-6.1-.14-.24-.28-.42-1.1-.06-1.44.47-.44,1.74-1.26,3.47-1.16.19.01.63.11.77.19.08.05.16.11.2.01.04-.11-.45-.52-.58-.59.74-.53,1.55-1.64,1.56-2.66l.02-1.25c.04-.94-.1-1.87.13-2.27.06-.15.53-.79,1.09-.64.24.06.78.52,1.14.76.74.51,1.02.57,2.16.68,0,0,.07.06.06.11.34,1.35.92,2.26,2.29,2.63.85.23,1.39.03,1.8-.31s.52-.77.55-.94l.56,1.85-2.91,2ZM20.01,8.78c.02.1-.03.49-.05.59-.15.86-.43,1.25-1.01,1.73-.62.52-1.07.69-1.72.82-.24-.3-.54-.48-.89-.48-.38,0-.69.06-1.09.27-.15.08-.42.24-.33.38.09.14.29.09.45.03.39-.13.77-.15,1.08.07.37.26.39.56.38.77s-.06.46-.4.72-.72.23-1.05.16c-.92-.18-1.65-.93-1.69-2.27-.04-1.22.63-2.68,1.38-3.55.35-.4.83-.86,1.33-1.27.6-.49,1.24-1.11,1.49-1.57.51-.95.56-2.78-.1-4.06.65.46,1.25.94,1.55,1.64.32.75-.05,1.78-.09,1.87-.04.1-.11.29-.28.47.47-.01.66-.16.75-.3.22.12.51.67.54,1.24.06,1.26-.06,1.79-.3,2.16-.15.18-.39.54-.71.66.36.08.53.07.75-.11Z" fill="#1a1a1a"/>
   <g fill="#fff">
    <path d="M15.21,17.22l-.77-.83c-.07-.08-.07-.11-.18-.11-.1.01-.25.18-.32.26-1.69,1.81-2.01,2.21-2.34,2.57-.29.31-.57.45-.83.62-.09.06-.18.12-.3.19-.27.16-.63.33-1.41.46-2.26.37-5.74.07-6.1-.14-.24-.28-.42-1.1-.06-1.44.47-.44,1.74-1.26,3.47-1.16.19.01.63.11.77.19.08.05.16.11.2.01.04-.11-.45-.52-.58-.59.74-.53,1.55-1.64,1.56-2.66l.02-1.25c.04-.94-.1-1.87.13-2.27.06-.15.53-.79,1.09-.64.24.06.78.52,1.14.76.74.51,1.02.57,2.16.68,0,0,.07.06.06.11.34,1.35.92,2.26,2.29,2.63.85.23,1.39.03,1.8-.31s.52-.77.55-.94l.56,1.85-2.91,2Z" data-name="shoe fill"/>
    <path d="M20.01,8.78c.02.1-.03.49-.05.59-.15.86-.43,1.25-1.01,1.73-.62.52-1.07.69-1.72.82-.24-.3-.54-.48-.89-.48-.38,0-.69.06-1.09.27-.15.08-.42.24-.33.38.09.14.29.09.45.03.39-.13.77-.15,1.08.07.37.26.39.56.38.77s-.06.46-.4.72-.72.23-1.05.16c-.92-.18-1.65-.93-1.69-2.27-.04-1.22.63-2.68,1.38-3.55.35-.4.83-.86,1.33-1.27.6-.49,1.24-1.11,1.49-1.57.51-.95.56-2.78-.1-4.06.65.46,1.25.94,1.55,1.64.32.75-.05,1.78-.09,1.87-.04.1-.11.29-.28.47.47-.01.66-.16.75-.3.22.12.51.67.54,1.24.06,1.26-.06,1.79-.3,2.16-.15.18-.39.54-.71.66.36.08.53.07.75-.11Z" data-name="front wing will"/>
    <path d="M14.17,8.12c-.09.13-.16.26-.27.46-.81-.03-1.56,1.19-2.37,2.17l-.03.03c-.1-.01-.23-.12-.41-.24.44-.66,1.4-1.71,1.79-2.07.37-.33.85-.49,1.29-.36Z" data-name="inside shoe fill"/>
    <path d="M11.12,6.57c.7-1.06,1.33-2.64,1.34-3.58,0-.55-.31-1.79-1.01-2.46.64.06,1.3.65,1.52.95.58.77.65,1.35.65,1.4,0,.08.02.28-.02.58.11.13.43-.21.44-.36.2.17.4.29.6.99.13.45-.01,1.54-.08,1.76-.03.1-.03.25-.17.45.21.03.39-.07.47-.26.11.36.19.62.12,1.09-.15.17-.34.31-.45.43-.8-.07-1.19-.02-1.8.39-.53.36-1.74,1.76-2.14,2.22-.1-.08-.29-.16-.4-.24-.04-.92.25-2.35.93-3.37Z" data-name="back wing fill"/>
   </g>
  </g>
 </g>
</svg>
