<?xml version="1.0" encoding="UTF-8"?>
<svg data-name="Skill Symbols" version="1.1" viewBox="0 0 24 24" xmlns="http://www.w3.org/2000/svg">
 <g data-name="Wild SVG">
  <g data-name="Compound">
   <path d="M13.35,20.62c0-1.26-.73-2.28-1.64-2.28s-1.64,1.02-1.64,2.28.73,2.28,1.64,2.28,1.64-1.02,1.64-2.28Z" fill="#fff"/>
   <path d="M5.15,9.46c.07.74,1.13,2.06,2.4,2.33.17.04.36.07.56.09.07,0,.15,0,.22.01.16,0,.32.02.5.02h0c.5,0,.94-.07,1.33-.17.11-.04.34-.1.52-.2.48-.26.72-.63.83-1.03.09-.3.1-.61.11-.91,0-.1,0-.19,0-.29,0-.08,0-.16,0-.23,0-.07,0-.13,0-.19.03-.35.18-.51.67-.63.04-.01.07-.03.09-.04,0,0,0-.01.01-.02,0-.01.01-.02.01-.04,0,0,0-.02,0-.02,0-.01-.01-.03-.02-.04,0,0-.02-.02-.02-.02-.02-.01-.03-.03-.05-.04-.01,0-.02-.02-.04-.02-.02-.01-.05-.02-.08-.04-.01,0-.03-.01-.04-.02-.09-.03-.19-.05-.29-.05-.06,0-.12,0-.18.02-.56.16-1.45.75-1.56.77-.14.04-.26.06-.38.08-.04,0-.07,0-.11,0-.06,0-.13.01-.18.01,0,0-.01,0-.02,0-.14,0-.27-.02-.38-.05-.03,0-.05-.02-.07-.03-.1-.04-.19-.08-.26-.13,0,0-.02-.01-.03-.02-.09-.06-.16-.14-.23-.22-.02-.02-.04-.04-.05-.06-.07-.08-.13-.16-.19-.25-.28-.43-.42-.89-.33-1.37.19-1.11,1.27-1.85,2.66-1.94.25-.02.5-.04.73-.04.07,0,.13,0,.2.01.07,0,.14,0,.21.01.28.02.56.05.81.11.57.13,1.06.37,1.47.71.74.76,1.07,1.31,1.26,2.71.11.8-.12,2.07-1.66,3.26-.32.25-.69.58-1.13.93-.43.32-.78.61-1.05.88-.28.27-.51.52-.71.77-.14.2-.26.36-.32.51-.22.52-.41,1.35.11,2.07.23.33.99.56,1.24.56s.48-.02.69-.05c.52-.14.6-.2.93-.37.07-.04.14-.08.21-.13.14-.1.28-.22.41-.34.07-.06.13-.12.19-.18.12-.12.22-.23.3-.31.08-.09.13-.15.14-.16.05-.05.07-.09.08-.13,0-.01,0-.02,0-.03,0-.02,0-.04-.02-.06,0,0,0-.01-.01-.01-.02-.01-.05-.02-.09-.02-.04,0-.09.01-.14.03-.01,0-.05.02-.1.05-.04.02-.08.04-.14.06-.02,0-.04.02-.06.03-.07.03-.15.07-.23.1-.02,0-.03.01-.05.02-.07.03-.15.05-.22.08-.03,0-.05.02-.08.03-.08.02-.16.04-.24.06-.02,0-.04,0-.06.01-.08.01-.17.02-.25.02,0,0-.01,0-.02,0-.07,0-.13-.02-.2-.03-.03,0-.07,0-.1-.02-.09-.04-.17-.09-.24-.17-.08-.1-.13-.2-.16-.3-.16-.7,1.02-1.36,1.07-1.39.07-.07.44-.28.89-.52.3-.16.63-.33.94-.49.15-.08.3-.15.43-.22.27-.13.47-.24.56-.28.12-.06.26-.13.4-.21,1.04-.55,2.66-1.61,2.7-3.75,0-.23-.02-.47-.06-.7-.19-1.05-.8-2.04-1.44-2.73-.35-.38-.71-.67-1.01-.8-.93-.5-2.25-.81-3.54-.93-.43-.04-.86-.06-1.27-.06-.2,0-.38,0-.56.01-.16,0-.33,0-.48.01-.33.02-.64.04-.93.08-.29.04-.56.08-.8.13-.24.05-.45.12-.64.19-.77.28-1.38.6-1.85.95-.24.17-.45.37-.64.58s-.35.45-.5.71c-.19.33-.32.69-.41,1.08v.29s-.07.07-.07.07c-.02.11-.05.21-.06.32-.06.65,0,1.23.2,1.75Z" fill="#fff"/>
   <path d="M23.35,11.77l-3.4-3.4c-.05-2.1-1.73-4.2-2.92-4.76-.69-.38-1.63-.67-2.68-.85L12,.42l-2.26,2.26c-.6.08-1.1.19-1.51.35-.82.31-1.51.66-2.03,1.04-.56.41-1.01.93-1.35,1.54-.35.59-.56,1.28-.64,2.04-.02.2,0,.38,0,.56l-3.56,3.56,8.69,8.69c0,.06-.01.11-.01.17,0,1.7,1.05,3.03,2.39,3.03,1.22,0,2.19-1.12,2.35-2.6l9.28-9.28ZM10.07,20.62c0-1.26.73-2.28,1.64-2.28s1.64,1.02,1.64,2.28-.73,2.28-1.64,2.28-1.64-1.02-1.64-2.28ZM5.08,7.33v-.29c.1-.38.22-.75.42-1.08.14-.26.31-.49.5-.71s.4-.41.64-.58c.47-.35,1.09-.66,1.85-.95.19-.07.4-.13.64-.19.24-.05.51-.1.8-.13.29-.04.6-.06.93-.08.15,0,.32,0,.48-.01.19,0,.37-.01.56-.01.41,0,.84.02,1.27.06,1.29.12,2.61.42,3.54.93.3.14.66.43,1.01.8.64.68,1.25,1.67,1.44,2.73.04.23.06.47.06.7-.04,2.14-1.66,3.2-2.7,3.75-.15.08-.29.15-.4.21-.08.04-.29.15-.56.28-.13.07-.28.14-.43.22-.31.16-.64.33-.94.49-.45.24-.82.45-.89.52-.05.03-1.22.69-1.07,1.39.02.1.07.2.16.3.07.08.15.13.24.17.03.01.07.01.1.02.06.01.13.03.2.03,0,0,.01,0,.02,0,.08,0,.16,0,.25-.02.02,0,.04,0,.06-.01.08-.02.16-.03.24-.06.03,0,.06-.02.08-.03.08-.02.15-.05.22-.08.02,0,.03-.01.05-.02.09-.03.16-.07.23-.1.02-.01.04-.02.06-.03.05-.02.1-.05.14-.06.05-.03.09-.04.1-.05.05-.02.1-.03.14-.03.04,0,.06,0,.09.02,0,0,0,0,.01.01.01.01.02.03.02.06,0,0,0,.02,0,.03-.01.04-.03.08-.08.13-.02.02-.07.08-.14.16-.08.09-.18.2-.3.31-.06.06-.12.12-.19.18-.13.12-.27.24-.41.34-.07.05-.14.1-.21.13-.34.18-.41.23-.93.37-.21.04-.44.05-.69.05s-1-.23-1.24-.56c-.51-.72-.33-1.55-.11-2.07.06-.15.18-.31.32-.51.2-.25.43-.51.71-.77.28-.27.63-.56,1.05-.88.44-.36.81-.68,1.13-.93,1.54-1.19,1.76-2.46,1.66-3.26-.19-1.4-.52-1.96-1.26-2.71-.41-.34-.9-.57-1.47-.71-.25-.06-.53-.09-.81-.11-.07,0-.14,0-.21-.01-.07,0-.13-.01-.2-.01-.23,0-.48.01-.73.04-1.39.09-2.47.83-2.66,1.94-.08.49.05.95.33,1.37.06.09.13.17.19.25.02.02.03.04.05.06.07.08.15.16.23.22,0,0,.02.01.03.02.08.05.17.1.26.13.02,0,.05.02.07.03.11.03.24.05.38.05,0,0,.01,0,.02,0,.06,0,.12,0,.18-.01.04,0,.07,0,.11,0,.12-.02.24-.04.38-.08.11-.02.99-.61,1.56-.77.06-.02.12-.02.18-.02.1,0,.2.02.29.05.01,0,.03.01.04.02.03.01.06.02.08.04.01,0,.02.02.04.02.02.01.04.03.05.04,0,0,.02.02.02.02.01.01.02.03.02.04,0,0,0,.02,0,.02,0,.01,0,.03-.01.04,0,0,0,.01-.01.02-.02.02-.04.03-.09.04-.49.13-.64.29-.67.63,0,.06,0,.12,0,.19,0,.07,0,.14,0,.23,0,.09,0,.19,0,.29,0,.3-.02.61-.11.91-.11.4-.35.77-.83,1.03-.18.1-.41.16-.52.2-.39.11-.84.16-1.33.17h0c-.18,0-.34,0-.5-.02-.07,0-.15,0-.22-.01-.2-.02-.39-.05-.56-.09-1.27-.27-2.34-1.6-2.4-2.33-.2-.52-.26-1.1-.2-1.75.01-.11.05-.21.06-.32l.07-.07Z" fill="#1a1a1a"/>
  </g>
 </g>
</svg>
