<?xml version="1.0" encoding="UTF-8"?>
<svg data-name="Skill Symbols" version="1.1" viewBox="0 0 24 24" xmlns="http://www.w3.org/2000/svg">
 <g data-name="Fist SVG">
  <g data-name="Fist SVG FINAL">
   <path d="M23.35,12.25l-5.43-5.43c-.01-.1-.03-.19-.06-.28-.64-1.69-1.4-2.49-3.28-3.48-.18-.09-.34-.11-.51-.09l-2.07-2.07-.77.77c-.51-.1-1.11,0-1.56.3-.27.18-.49.5-.62.72,0,0-.05-.01-.05-.01-.86-.27-1.47-.13-1.84.1-.57.35-.85.98-.96,1.43-.79.01-1.61.52-1.91,1.02-.2.32-.19.71-.2.95-.26.01-.68.04-.91.12-.58.23-.88.59-1.02,1.11-.27,1.01-.1,1.89.39,2.95l-1.89,1.89,7.52,7.52c.44.96,1.15,2.06,1.35,2.35.07.11.19.17.32.17.07,0,.14-.02.2-.06.11-.07.24-.15.36-.23l1.6,1.6,11.35-11.35ZM9.46,17.59c.03.06.06.24.1.34.09.27.12.46.42.31,1.32-.62,6.13-3.9,6.56-4.84.01-.02,0-.05,0-.07.33.25,1.08,1.16,1.2,2.22-.09.71-4.11,3.56-7.82,5.93-.63-.99-1.35-2.45-1.35-2.9,0-.33.58-.87.9-.99ZM9.97,2.61c.39-.27.86-.37,1.25-.27.83.21,1.47.84,1.63,1.17l-.15.22c-.12-.01-.33-.51-.41-.42s0,.48.02.6l-.22.23c-.17.17-.33.35-.49.52-.23.25-.59.57-.84.79l-.64-1.17c-.33-.55-.56-1.03-.56-1.19.01-.08.13-.28.41-.47ZM7.5,3.4c.3-.19.73-.32,1.13-.15.4.17,1.38,1.75,1.56,2.45-.4.16-.61.39-.69.55-.12.23-.01.63.16.86.38.51.59.6,1.34.72-.09.16-.3.4-.5.5-.14.07-.49.22-.81.02-.35-.22-2.74-3.46-2.8-3.97-.06-.51.22-.75.6-.99ZM4.83,5.63c.23-.36,1-.83,1.47-.71.5.2,2.13,2.94,2.41,3.36.17.32.44.87-.09,1.43-.37.32-1.15.36-1.61-.2-1-1.55-2.17-2.8-2.3-3.25,0-.03-.07-.34.12-.64ZM2.66,7.77c.06-.38.59-.72.79-.8.39-.16.73-.12.79-.08.4.28,2.01,2.26,2.33,2.79.16.26.3.79.04,1.14-.38.32-.85.22-1.12.09-1.04-.47-1.45-1.1-1.46-1.12-.13-.18-.49-.67-.67-.57-.15.08.16.5.29.71.01.02-.43-.05-.38.12.06.19.6.2.62.22.04.07.71.93,1.82,1.3.37.13.99.03,1.21-.21.41-.45.47-.7.56-.73,0,.09,1.06.07,1.64-.47.29-.27.38-.63.42-.72.08-.18.48-.21.56-.11.1.29.03,1.37.04,1.43.05.37.12.57.22.63.14.09.17-.12.25-.33.66-1.67.98-1.78,1.9-2.67.33-.32.48-.55,1.02-.47,0,0,1.39.68,1.48.55.08-.12-.03-.23-.17-.35-.09-.07-.53-.53-1.02-.8l.77-.42c.18-.08.51-.24.5-.33,0-.08-.05-.13-.31-.13h-.25c.1-.47.19-.63.26-.76.07-.14.17-.35.11-.39-.11-.07-.35.17-.52.36-.24.27-1.24,1.16-1.24,1.16-.42.25-.74.4-1.17.44-1.38.14-1.82-.48-1.77-.76.05-.27.43-.3.5-.3.66-.3.8-.47,1.46-1.19.7-.76,1.73-1.64,2.32-1.35,1.64.82,2.31,1.68,2.79,2.89.27.67-.22,1.76-.73,2.78-.44.88-1.01,1.86-1.08,2.6-.1,1.14.47,1.5.49,1.51-.99.92-4.93,3.74-5.91,4.15-.02-.04-.21-.63-.24-.69-.64-1.27-.9-.95-1.96-1.66-1.51-1.01-2.64-2.64-2.66-2.66-.02-.03-.16-.25-.18-.28-.01-.01-1.54-1.14-1.88-2.02-.34-.88-.52-1.88-.42-2.56Z" fill="#1a1a1a"/>
   <g fill="#fff">
    <path d="M10.12,4.27l.64,1.17c.24-.22.61-.54.84-.79.16-.17.32-.35.49-.52l.22-.23c-.03-.12-.1-.5-.02-.6s.29.4.41.42l.15-.22c-.16-.33-.8-.96-1.63-1.17-.38-.09-.85,0-1.25.27-.28.19-.4.38-.41.47,0,.16.23.64.56,1.19Z"/>
    <path d="M9.7,8.36c.32.2.67.05.81-.02.2-.11.41-.34.5-.5-.75-.12-.96-.21-1.34-.72-.18-.23-.28-.63-.16-.86.08-.15.29-.39.69-.55-.19-.7-1.16-2.28-1.56-2.45-.4-.17-.83-.03-1.13.15-.38.24-.65.48-.6.99.06.51,2.45,3.75,2.8,3.97Z"/>
    <path d="M7.01,9.52c.46.55,1.24.52,1.61.2.54-.56.26-1.12.09-1.43-.27-.42-1.91-3.16-2.41-3.36-.48-.12-1.25.34-1.47.71-.19.3-.12.61-.12.64.13.45,1.3,1.7,2.3,3.25Z"/>
    <path d="M4.96,12.35s.16.25.18.28c.01.02,1.14,1.65,2.66,2.66,1.07.71,1.32.39,1.96,1.66.03.06.22.65.24.69.98-.41,4.92-3.23,5.91-4.15-.02-.01-.59-.37-.49-1.51.07-.75.64-1.72,1.08-2.6.51-1.02.99-2.12.73-2.78-.48-1.21-1.15-2.07-2.79-2.89-.59-.3-1.62.59-2.32,1.35-.66.72-.79.89-1.46,1.19-.07,0-.45.02-.5.3-.05.27.39.9,1.77.76.43-.04.75-.19,1.17-.44,0,0,.99-.9,1.24-1.16.17-.19.41-.43.52-.36.06.04-.03.25-.11.39-.07.13-.16.29-.26.77h.25c.27-.02.31.03.31.11,0,.09-.33.25-.5.33l-.77.42c.49.27.94.72,1.02.8.14.12.25.23.17.35-.09.12-1.48-.55-1.48-.55-.54-.08-.7.15-1.02.47-.91.89-1.24,1.01-1.9,2.67-.08.2-.11.42-.25.33-.1-.06-.17-.26-.22-.63,0-.06.06-1.14-.04-1.43-.07-.1-.48-.07-.56.11-.04.09-.12.45-.42.72-.58.53-1.64.56-1.64.47-.09.04-.15.28-.56.73-.22.24-.83.34-1.21.21-1.12-.37-1.77-1.21-1.82-1.31,0-.01-.56-.03-.62-.22s.39-.11.38-.12c-.13-.21-.44-.62-.29-.71.17-.1.54.39.67.57,0,.01.42.64,1.46,1.12.27.12.74.23,1.12-.09.26-.35.13-.88-.04-1.14-.32-.54-1.93-2.51-2.33-2.79-.06-.04-.4-.08-.79.08-.2.08-.73.42-.79.8-.11.68.07,1.68.42,2.56.34.88,1.87,2.01,1.88,2.02Z"/>
    <path d="M17.74,15.55c-.11-1.06-.87-1.97-1.2-2.22,0,.02.01.05,0,.07-.43.94-5.24,4.22-6.56,4.84-.3.14-.34-.05-.42-.31-.03-.1-.07-.28-.1-.34-.31.12-.9.66-.9.99,0,.45.72,1.91,1.35,2.9,3.71-2.37,7.74-5.22,7.82-5.93Z"/>
   </g>
  </g>
 </g>
</svg>
