<?xml version="1.0" encoding="UTF-8"?>
<svg data-name="Skill Symbols" version="1.1" viewBox="0 0 24 24" xmlns="http://www.w3.org/2000/svg">
 <g data-name="Book SVG">
  <g data-name="Book Compound FINAL">
   <path d="M17.58,18.23s-.01-.07-.02-.1c-.04-.26-.08-.5-.13-.71-.38-1.83-.86-2.21-1.25-2.76h0c-.63.03-4.91.61-4.91.61.46.45,1.04,1.65,1.43,3.02.17.59.31,1.21.39,1.82,0,0,0,.01,0,.01.25-.15,2.18-1.82,2.18-1.82.08.03.28.11.53.22.18.08.39.17.6.26.03.01.06.03.09.04.1.04.2.09.3.13.43.19.81.35.93.39,0,0,0,0,0,0-.03-.3-.07-.58-.11-.83-.01-.09-.03-.19-.04-.28Z" fill="#fff" data-name="ribbon fill"/>
   <path d="M19.46,15.11c-.2-.35-.35-.68-.51-.92-.1-.16-.2-.34-.2-.39.03-.24.04-.51.15-.76.05-.14.19-.41.23-.43.52-.18.72-.14,1.04-.28.16-.07.06-.17.05-.19-.14-.29-3.76-6.31-4.47-7.45-.04-.07-.07-.12-.19-.15-.12-.03-.23,0-.23,0l-9.87,1.32c-.52.12-.96.55-1.14,1.23-.19.69-.19,2.86.01,3.31,2.58,4.18,3.43,6.3,4.65,7.84.46.32,1.65.3,2.92.15,0,0,0,0,.01,0-.08-.33-.18-.66-.28-.96-1.36.12-2.41.1-2.53-.23-.32-.88-.65-2.31.25-3.03.9-.72,9.15-1.48,9.15-1.48-.66,1.36.14,3.6.14,3.6,0,0-.28.06-.72.15.09.28.18.58.25.89.32-.03.65-.06.92-.09.39-.05.77-.07,1.08-.1.06,0,.16-.02.18-.1.03-.08.04-.15.01-.21-.26-.52-.65-1.27-.92-1.72Z" fill="#fff" data-name="book fill"/>
   <path d="M20.17,15.13l3.13-3.13-5.65-5.65c-.81-1.35-1.53-2.41-1.78-2.51-.11-.04-.38-.05-.76-.03l-3.16-3.16-4.12,4.12c-1.31.21-2.35.39-2.64.44-.95.18-1.69,1.24-1.7,2.03,0,.04-.05.96-.02,1.88l-2.87,2.87,11.35,11.35,3.97-3.94h.01c1.32.64,2.34,1.01,2.45.93.21-.15.12-.74.12-1-.02-.42-.07-.84-.14-1.24h0s.08-.01.13-.02c.82-.11,1.53-.18,2.02-.27.67-.13.5-.84.5-.89-.02-.49-.43-1.16-.84-1.79ZM17.72,19.34c-.12-.04-.5-.21-.93-.39-.1-.04-.2-.09-.3-.13-.03-.01-.06-.03-.09-.04-.21-.09-.42-.18-.6-.26-.25-.11-.45-.19-.53-.22,0,0-1.92,1.66-2.18,1.82,0,0,0-.01,0-.01-.08-.61-.21-1.23-.39-1.82-.4-1.37-.98-2.57-1.43-3.02,0,0,4.28-.58,4.91-.61h0c.39.55.87.94,1.25,2.77.04.21.09.46.13.71,0,.04.01.06.02.1.01.09.03.19.04.28.04.26.07.53.11.83,0,0,0,0,0,0ZM20.38,17.04c-.03.08-.13.09-.18.1-.31.03-.69.05-1.08.1-.26.03-.6.06-.92.09-.08-.31-.16-.61-.25-.89.44-.09.72-.15.72-.15,0,0-.81-2.24-.14-3.6,0,0-8.25.77-9.15,1.48-.9.72-.57,2.15-.25,3.03.12.33,1.17.35,2.53.23.11.31.2.63.28.96,0,0,0,0-.01,0-1.27.15-2.46.17-2.92-.15-1.22-1.54-2.07-3.66-4.65-7.84-.21-.45-.2-2.62-.01-3.31.18-.68.62-1.11,1.14-1.23l9.87-1.32s.1-.03.23,0c.12.03.15.08.19.15.71,1.14,4.33,7.16,4.47,7.45,0,.02.1.12-.05.19-.32.14-.51.1-1.04.28-.04.01-.18.28-.23.43-.1.24-.12.52-.15.76,0,.05.09.23.2.39.15.24.31.57.51.92.28.45.66,1.2.92,1.72.03.06.01.13-.01.21Z" fill="#1a1a1a"/>
  </g>
 </g>
</svg>
